<svg width="22" height="28" viewBox="0 0 22 28" fill="none" xmlns="http://www.w3.org/2000/svg">
<g id="Group">
<path id="Vector" d="M18.1667 21.1667C19.0871 21.1667 19.8333 20.4205 19.8333 19.5C19.8333 18.5796 19.0871 17.8334 18.1667 17.8334C17.2462 17.8334 16.5 18.5796 16.5 19.5C16.5 20.4205 17.2462 21.1667 18.1667 21.1667Z" stroke="white" stroke-width="4" stroke-linecap="round" stroke-linejoin="round"/>
<path id="Vector_2" d="M2.33331 5.33333C2.33331 4.44928 2.6845 3.60143 3.30962 2.97631C3.93474 2.35119 4.78259 2 5.66665 2C6.5507 2 7.39855 2.35119 8.02367 2.97631C8.64879 3.60143 8.99998 4.44928 8.99998 5.33333V20.3333C8.99998 21.6594 9.52676 22.9312 10.4644 23.8689C11.4021 24.8066 12.6739 25.3333 14 25.3333C15.3261 25.3333 16.5978 24.8066 17.5355 23.8689C18.4732 22.9312 19 21.6594 19 20.3333V19.5M3.99998 12H14" stroke="white" stroke-width="4" stroke-linecap="round" stroke-linejoin="round"/>
</g>
</svg>
