<svg width="42" height="59" viewBox="0 0 42 59" fill="none" xmlns="http://www.w3.org/2000/svg">
<g id="Group 26">
<rect id="Rectangle 1076" x="8" y="32" width="25" height="27" rx="12.5" fill="white"/>
<path id="Vector" d="M20.6086 59C26.8368 59 33.1403 57.1216 33.1403 53.5316V37.1266C33.1403 33.5366 26.8368 31.6582 20.6086 31.6582C14.3804 31.6582 8.07697 33.5366 8.07697 37.1266V53.5316C8.07697 57.1216 14.3804 59 20.6086 59ZM20.6086 56.2658C14.7783 56.2658 11.2099 54.4954 11.2099 53.5316V51.7982C13.6238 52.9438 17.1264 53.5316 20.6086 53.5316C24.0908 53.5316 27.5934 52.9438 30.0074 51.7982V53.5316C30.0074 54.4954 26.439 56.2658 20.6086 56.2658ZM20.6086 34.3924C26.439 34.3924 30.0074 36.1628 30.0074 37.1266C30.0074 38.0904 26.439 39.8607 20.6086 39.8607C14.7783 39.8607 11.2099 38.0904 11.2099 37.1266C11.2099 36.1628 14.7783 34.3924 20.6086 34.3924ZM11.2099 40.8614C13.6238 42.0071 17.1264 42.5949 20.6086 42.5949C24.0908 42.5949 27.5934 42.0071 30.0074 40.8614V42.5949C30.0074 43.5587 26.439 45.3291 20.6086 45.3291C14.7783 45.3291 11.2099 43.5587 11.2099 42.5949V40.8614ZM11.2099 46.3298C13.6238 47.4754 17.1264 48.0633 20.6086 48.0633C24.0908 48.0633 27.5934 47.4754 30.0074 46.3298V48.0633C30.0074 49.0271 26.439 50.7975 20.6086 50.7975C14.7783 50.7975 11.2099 49.0271 11.2099 48.0633V46.3298Z" fill="#E4572E"/>
<g id="Group">
<path id="Vector_2" d="M28.5315 28.3191C35.1264 28.3191 39.6679 25.2622 40.1982 17.1624V15.303H35.9409C26.3955 15.303 23.2285 19.0219 23.2137 23.6705C23.2137 24.6002 23.2137 26.4597 25.3349 28.3191H28.5167H28.5315Z" fill="white" stroke="#E4572E" stroke-width="3" stroke-linecap="round" stroke-linejoin="round"/>
<path id="Vector_3" d="M24.2889 31.1083C24.8192 26.9245 26.9404 23.6705 31.7131 21.811" stroke="#E4572E" stroke-width="3" stroke-linecap="round" stroke-linejoin="round"/>
</g>
<g id="Group_2">
<path id="Vector_4" d="M24.6652 11.7083C27.9188 9.99573 29.21 7.01298 26.9565 2.09696L26.3791 1.00002L24.2788 2.10556C19.5696 4.58437 19.162 7.60068 20.5981 10.3469C20.8868 10.8954 21.4642 11.9923 23.0881 12.5384L24.6579 11.7122L24.6652 11.7083Z" fill="white" stroke="#E4572E" stroke-width="2" stroke-linecap="round" stroke-linejoin="round"/>
<path id="Vector_5" d="M23.4381 14.4557C22.4006 11.8498 22.4366 9.37934 24.2138 7.04298" stroke="#E4572E" stroke-width="2" stroke-linecap="round" stroke-linejoin="round"/>
</g>
<g id="Group_3">
<path id="Vector_6" d="M14.1528 24.213C7.28314 24.213 2.55241 21.0287 2.00001 12.5915V10.6545H6.43466C16.3778 10.6545 19.6767 14.5284 19.6922 19.3707C19.6922 20.3392 19.6922 22.2761 17.4826 24.213H14.1682H14.1528Z" fill="white" stroke="#E4572E" stroke-width="3" stroke-linecap="round" stroke-linejoin="round"/>
<path id="Vector_7" d="M18.5716 27.1185C18.0192 22.7604 15.8096 19.3708 10.838 17.4338" stroke="#E4572E" stroke-width="3" stroke-linecap="round" stroke-linejoin="round"/>
</g>
</g>
</svg>
