<svg width="35" height="30" viewBox="0 0 35 30" fill="none" xmlns="http://www.w3.org/2000/svg">
<g id="Group">
<path id="Vector" d="M1.44253 29.8304H11.3695L5.31196 19.4642L0.344516 27.9661C-0.141143 28.7958 0.46857 29.8304 1.44253 29.8304Z" fill="#2C7C7A"/>
<path id="Vector_2" d="M11.3695 9.41968L5.31195 19.4643H17.3716L11.3695 9.41968Z" fill="#41B5B5"/>
<path id="Vector_3" d="M32.9892 29.8304H23.3552L29.2491 19.4642L34.0925 27.9817C34.565 28.8114 33.9553 29.8304 32.9892 29.8304Z" fill="#2C7C7A"/>
<path id="Vector_4" d="M29.2492 19.4642L23.3553 29.8304L17.3716 19.4642H29.2492Z" fill="#359A9C"/>
<path id="Vector_5" d="M17.3716 19.4642H5.31195L11.3695 29.8304L17.3716 19.4642Z" fill="#359A9C"/>
<path id="Vector_6" d="M11.3695 29.8304L17.3716 19.4642L23.3553 29.8304H11.3695Z" fill="#2C7C7A"/>
<path id="Vector_7" d="M11.3695 9.41968L17.3716 19.4643L23.3553 9.41968H11.3695Z" fill="#62D3CD"/>
<path id="Vector_8" d="M17.3716 19.4643L23.3553 9.41968L29.2492 19.4643H17.3716Z" fill="#41B5B5"/>
<path id="Vector_9" d="M11.3695 9.41963L16.3 1.10443C16.7751 0.303244 17.9523 0.303244 18.4274 1.10443L23.3579 9.41963H11.3695Z" fill="#6DE2D9"/>
</g>
</svg>
